<?xml version="1.0" encoding="UTF-8"?><svg id="a" xmlns="http://www.w3.org/2000/svg" viewBox="0 0 138.7478 138.7478"><defs><style>.b{stroke:#623833;stroke-linecap:round;stroke-linejoin:round;stroke-width:2px;}.b,.c{fill:#7c5042;}.d{fill:#fbd22b;}.e{fill:#56c0ee;}.f{stroke-width:1.82px;}.f,.g,.h{fill:#e7a089;}.f,.h{stroke:#b4725e;stroke-miterlimit:10;}.i{fill:#de2528;}.j{fill:#ef7c98;}.h{stroke-width:1.86px;}.k{fill:#010202;}</style></defs><circle class="d" cx="69.3739" cy="69.3739" r="69.3739"/><rect class="k" x="47.2511" y="53.8425" width="41.1344" height="1.2744" transform="translate(-7.9951 11.8219) rotate(-9.4105)"/><rect class="i" x="45.2608" y="43.1547" width="43.1168" height="10.6907" transform="translate(-7.0309 11.5781) rotate(-9.4105)"/><path class="b" d="M130.3739,46.7049l-7.7175,19.8247c-.5664,1.8409-1.3452,3.5401-2.3365,5.1686-.7788,.9912-1.6285,1.9825-2.4781,2.9029-4.6022,4.6022-15.1517,13.9481-21.9487,20.1079-3.3277,3.0445-5.6642,5.0978-5.6642,5.0978l5.6642-5.0978,2.5489,6.443c.2124,.6372,.2832,1.2744,.0708,1.9117-.6372,1.3452-8.8503,8.8503-12.4612,9.7707-1.6285-1.5577-3.5401-6.5846-3.8941-7.8591-.8496-3.2569-1.2744-6.5846-1.2036-9.9123,0,0-.2832-10.9036,12.9568-15.2225-12.6736,4.1065-12.9568,14.8685-12.9568,14.8685l-.0708-.2832c-4.8854-8.6379-.708-13.5233,1.2744-16.5678,4.2481-5.6642,21.9487-21.3823,21.9487-21.3823-.1416-.0708,.2832,.4248,.6372,.8496,.4956,.708,.8496,1.9825-.2124,4.319-1.8409,3.5401-9.8415,13.3108-9.8415,13.3108l14.7977-8.6379s.2832,2.4073,.354,2.9029c.2124,2.1241,.7788,2.7613-.354,3.6817-1.1328,.6372-3.2569,1.7701-3.2569,1.7701,0,0,2.9029-1.2744,3.8233-2.2657,.4248-.4248-1.1328-6.7262-.4956-10.9036,.0708-.354,.708-6.2306,3.0445-8.2131,.7788,1.4869,2.2657,8.3547,2.2657,8.3547,.2832,1.416,.5664,2.7613,.9912,4.1773,.9912,2.6905,2.4073,7.2219,2.2657,8.0007-.7788,1.062-.708,1.2036-1.2744,1.6993-.4248,.354,1.1328-.9204,1.3452-2.0533-.0708-.354-.2124-.6372-.354-.9912,0,0-2.1241-6.443-2.6905-9.1335s.7788-11.3284,1.1328-12.9568,1.2744-4.3898,4.5313-4.0357c-.2124,1.9825,.6372,22.6568,.6372,22.6568,0,0-.9204,2.3365-.2832,.9204,.4956-1.2036-.4248-18.3378-.4248-18.3378,0,0,4.1774-5.5226,9.6292-4.8853Z"/><path class="f" d="M5.1953,66.5296l13.6649,16.2846c1.1328,1.4869,2.4781,2.9029,3.8941,4.1773,1.062,.708,2.1949,1.3452,3.3277,1.9117,5.8058,2.8321,18.9042,8.3547,27.2589,11.9656l7.0094,3.0445-7.0094-3.0445-.354,6.9386c0,.6372,.1416,1.2744,.4956,1.8409,.9912,1.062,11.2576,5.5226,14.9393,5.2394,1.062-1.9825,1.2036-7.3634,1.1328-8.7087-.2124-3.3277-.9204-6.6554-2.0533-9.8415,0,0-1.9825-8.9211-15.8597-8.7087,13.3109-.1416,15.7889,8.4255,15.7889,8.4255v-.2832c1.8409-9.7707-3.7525-13.0276-6.5138-15.2225-5.8058-3.9649-27.6837-13.1693-27.6837-13.1693,.0708-.1416-.1416,.5664-.2832,1.062-.2832,.8496-.1416,2.1241,1.6285,4.0357,2.9029,2.6905,13.5941,9.4167,13.5941,9.4167l-16.7802-3.3985,.5664,2.8321c.4248,2.0533,.1416,2.8321,1.4868,3.3277,1.2744,.2832,3.6817,.6372,3.6817,.6372,0,0-3.1861-.2832-4.3897-.9204-.4956-.2832-1.062-6.7262-3.0445-10.4787-.1416-.354-2.6905-5.6642-5.5226-6.7262-.2832,1.6284,.5664,8.6379,.5664,8.6379,.2124,1.416,.354,2.8321,.354,4.2481-.0708,2.8321,0,7.6467,.4248,8.2839,1.1328,.7788,1.062,.9204,1.6993,1.2036,.4956,.2124-1.3452-.4956-1.9825-1.4869v-.9912s-.0708-6.7262-.4248-9.4875-4.3897-10.4787-5.2394-11.8948-2.6197-3.7525-5.5934-2.4073c.8496,1.7701,6.6554,21.5947,6.6554,21.5947,0,0,1.6285,1.9117,.5664,.7788-.8496-.9912-5.5226-17.4174-5.5226-17.4174,0,0-5.5934-4.1066-10.4788-1.6993Z"/><path class="e" d="M70.5459,31.978c1.6285-2.7613,3.3985-3.6817,4.3897-2.6905s.708,3.4693-.9204,6.2306c-1.2036,1.8409-2.6197,3.6109-4.319,5.0978,.8496-.4956,1.8409-.9204,2.8321-1.1328,2.1949-.4956,3.6817,.2124,3.8941,1.416s-.9204,2.4073-3.1153,2.9029c-2.4073,.4956-5.4518-.2832-6.5138-.6372l-.1416,.0708c.0708,.0708,2.6905-9.2043,3.8941-11.2576Z"/><path class="e" d="M69.9087,33.2524c.5664-3.1861,.0708-5.4518-.9204-5.8766s-2.4781,.7788-3.1153,3.9649c-.4248,1.8409-.4248,2.0533-.7788,4.1773-.2124-1.2036-1.3452-3.1153-1.7701-4.1065-1.1328-2.3365-2.2657-2.8321-3.0445-2.4073s-.7788,2.2657,.1416,4.673,6.1598,9.4875,6.1598,9.4167c.4956-.8496,2.9737-7.6467,3.3277-9.8416Z"/><path class="e" d="M59.7839,33.6773c-2.4073-2.1241-4.3189-2.4781-4.9562-1.2744s.354,3.4693,2.7613,5.5934c1.6993,1.416,3.5401,2.6197,5.5934,3.5401-.9912-.2124-1.9825-.354-3.0445-.2832-2.1949,.2124-3.3985,1.2744-3.2569,2.4781s1.5577,2.0533,3.8233,1.8409c2.4781-.2124,5.027-1.9117,5.9474-2.4781l.1416,.0708c.0708,.0708-5.2394-7.9299-7.0094-9.4875Z"/><rect class="j" x="49.2357" y="54.9056" width="42.6212" height="32.1429" transform="translate(-10.6558 12.49) rotate(-9.4105)"/><rect class="e" x="69.1974" y="42.799" width="2.1948" height="44.1788" transform="translate(-9.6637 12.367) rotate(-9.4105)"/><path class="c" d="M103.8938,78.6368c2.2657,2.7613-1.062,5.9474-7.0094,10.8328s-12.178,9.5583-14.4437,6.8678,.1416-12.0364,9.9123-16.851c6.797-3.5401,9.2751-3.6109,11.5408-.8496Z"/><path class="b" d="M81.1662,94.2841s-.2832-10.9036,12.9568-15.2225c-12.6736,4.1065-12.9568,14.8685-12.9568,14.8685"/><path class="h" d="M51.146,85.4338s14.6561,2.6197,16.6386,11.824"/><path class="g" d="M65.6605,98.1074c-1.1328,3.3985-5.5934,2.1949-12.886-.2832s-14.5853-5.3102-13.4525-8.7087,10.2663-6.2306,19.5415-.4956c6.5846,4.1065,7.9299,6.1598,6.797,9.4875Z"/></svg>