<?xml version="1.0" encoding="UTF-8"?><svg id="a" xmlns="http://www.w3.org/2000/svg" viewBox="0 0 200 200"><defs><style>.b{fill:#ffdafc;}.c{fill:#ece9eb;}.d{fill:#fafafa;}.e{fill:#b45198;}.f{fill:#c060a1;}</style></defs><circle class="b" cx="100" cy="100" r="100"/><g><path class="f" d="M164.97,149.44c-22.35,9.69-40.61,27.14-64.97,26.95-23.43-.18-41.65-17.63-64.97-26.95l39.48-53.67h50.99l39.48,53.67Z"/><path class="e" d="M145.2,163.56c-14.31,9.69-29.6,11.49-45.2,11.3-15-.18-30.27-1.98-45.2-11.3l28.88-67.8h32.63l28.88,67.8Z"/><path class="f" d="M119.77,176.48h0c-12.75,5.38-26.8,5.38-39.55,0h0l12.64-80.71h14.28l12.64,80.71Z"/><path class="d" d="M125.42,95.76h-50.85l-4.94-67.8c20.32-7.59,40.81-7.48,61.44,0l-5.65,67.8Z"/><path class="c" d="M100,47.74l-13.04-17.39c-2.16-2.88-1.15-7.12,2.17-8.54,7.25-3.1,14.5-3.1,21.75,0,3.31,1.42,4.33,5.65,2.17,8.54l-13.04,17.39Z"/></g></svg>