<?xml version="1.0" encoding="UTF-8"?><svg id="a" xmlns="http://www.w3.org/2000/svg" viewBox="0 0 200 200"><defs><style>.b{fill:#ef7b97;}.c{fill:#ffdafc;}.d{fill:#fff;}.e{fill:#e8457d;}.f{fill:#ee7b96;}</style></defs><circle class="c" cx="100" cy="100" r="100"/><g><path class="b" d="M129.68,85.83l17.68-4.89c2.34-.65,3.57-3.22,2.6-5.45l-15.53-35.59c-2.01-4.6-5.83-8.17-10.55-9.85l-15.64-5.58c-1.66-.59-3.41-.89-5.17-.89h-28.98c-1.76,0-3.51,.3-5.17,.89l-15.64,5.58c-4.73,1.69-8.55,5.25-10.55,9.85l-15.53,35.59c-.97,2.23,.25,4.8,2.6,5.45l17.68,4.89"/><path class="f" d="M103.07,23.56h0c2.5,1.89,3.04,5.44,1.21,7.98l-15.7,21.87-15.7-21.87c-1.83-2.55-1.29-6.09,1.21-7.98h0"/><path class="f" d="M67.25,25.05l-2.44,2.37c-1.39,1.35-2.01,3.3-1.66,5.2l2.78,15.19c.73,4,4.73,6.53,8.66,5.46l3.97-1.08c.63-.17,1.23,.36,1.14,1h0c-.37,2.61,.97,5.16,3.32,6.34l5.57,2.79"/><path class="f" d="M109.91,25.05l2.44,2.37c1.39,1.35,2.01,3.3,1.66,5.2l-2.78,15.19c-.73,4-4.73,6.53-8.66,5.46l-3.97-1.08c-.63-.17-1.23,.36-1.14,1h0c.37,2.61-.97,5.16-3.32,6.34l-5.57,2.79"/><g><path class="b" d="M47.48,40.99v92.41c0,2.21,1.79,4,4,4h78.21V65.86"/><path class="e" d="M107.22,24.47c2.22,.48,4.26,1.68,5.59,3.53,.34,.48,.63,.99,.83,1.56,.67,1.91,.3,4.02-.07,6.01l-1.91,10.09c-.33,1.74-.68,3.53-1.68,5-1.03,1.51-2.72,2.55-4.53,2.79-1.98,.26-3.96-.4-5.86-1.03-.66-.22-1.5-.38-1.95,.15-.3,.36-.27,.88-.28,1.34-.06,1.97-1.22,3.77-2.72,5.04s-3.32,2.1-5.12,2.9c-.3,.13-.61,.27-.94,.27-.32,0-.61-.13-.9-.26-1.82-.79-3.65-1.63-5.15-2.92s-2.67-3.11-2.73-5.09c-.02-.52,0-1.13-.39-1.46-.39-.33-.98-.21-1.47-.06-2.04,.61-4.14,1.37-6.25,1.09-1.86-.25-3.59-1.35-4.61-2.93-.91-1.41-1.23-3.11-1.54-4.76l-2.06-11.08c-.25-1.34-.5-2.71-.26-4.05,.41-2.27,2.19-4.1,4.24-5.16s4.36-1.46,6.64-1.85c-1.6,1.31-2.64,3.43-2.26,5.47,.25,1.34,1.07,2.5,1.87,3.62l14.87,20.72,14.27-19.8c.86-1.19,1.73-2.41,2.2-3.8,.78-2.31-.03-4.77-1.97-6.24l4.15,.91Z"/><path class="e" d="M129.68,85.83l17.68-4.89c2.34-.65,3.57-3.22,2.6-5.45l-1.99-4.57-18.28,5.15v9.77Z"/><path class="e" d="M47.48,85.83l-17.68-4.89c-2.34-.65-3.57-3.22-2.6-5.45l1.99-4.57,18.28,5.15v9.77Z"/></g><g><circle class="e" cx="88.56" cy="71.59" r="1.64"/><circle class="e" cx="88.56" cy="91.59" r="1.64"/><circle class="e" cx="88.56" cy="111.59" r="1.64"/></g><g><path class="e" d="M65.74,118.85c-5.57,0-10.5-3.32-12.61-8.46-2.11,5.14-7.05,8.46-12.61,8.46-7.52,0-13.63-6.12-13.63-13.63s6.12-13.63,13.63-13.63h25.23c7.52,0,13.63,6.12,13.63,13.63s-6.12,13.63-13.63,13.63Z"/><path class="e" d="M65.74,92.61h-25.23c-6.97,0-12.61,5.65-12.61,12.61h0c0,6.97,5.65,12.61,12.61,12.61h0c5.32,0,9.86-3.29,11.72-7.95,.15-.37,.5-.61,.9-.61h0c.4,0,.75,.24,.9,.61,1.86,4.66,6.4,7.95,11.72,7.95h0c6.97,0,12.61-5.65,12.61-12.61h0c0-6.97-5.65-12.61-12.61-12.61Z"/><g><path class="d" d="M58.53,108.08c.23,.21,.59,.19,.8-.04l1.91-2.14c.68,.47,1.42,.83,2.21,1.07l-.7,2.87c-.07,.3,.11,.61,.42,.69,.3,.07,.61-.11,.69-.42l.71-2.89c.38,.06,.77,.08,1.16,.08s.78-.03,1.16-.08l.71,2.89c.07,.3,.38,.49,.69,.42,.3-.07,.49-.38,.42-.69l-.7-2.87c.79-.24,1.53-.59,2.21-1.07l1.91,2.14c.21,.23,.57,.25,.8,.04,.23-.21,.25-.57,.04-.8l-1.87-2.09c.07-.07,.14-.13,.21-.2,.22-.22,.22-.58,0-.8-.22-.22-.58-.22-.8,0-1.28,1.28-2.98,1.98-4.78,1.98s-3.51-.7-4.78-1.98c-.11-.11-.26-.17-.4-.17s-.29,.06-.4,.17c-.22,.22-.22,.58,0,.8,.07,.07,.14,.14,.21,.2l-1.87,2.09c-.21,.23-.19,.59,.04,.8Z"/><path class="d" d="M33.33,108.08c.23,.21,.59,.19,.8-.04l1.91-2.14c.68,.47,1.42,.83,2.21,1.07l-.7,2.87c-.07,.3,.11,.61,.42,.69,.3,.07,.61-.11,.69-.42l.71-2.89c.38,.06,.77,.08,1.16,.08s.78-.03,1.16-.08l.71,2.89c.07,.3,.38,.49,.69,.42,.3-.07,.49-.38,.42-.69l-.7-2.87c.79-.24,1.53-.59,2.21-1.07l1.91,2.14c.21,.23,.57,.25,.8,.04,.23-.21,.25-.57,.04-.8l-1.87-2.09c.07-.07,.14-.13,.21-.2,.22-.22,.22-.58,0-.8-.22-.22-.58-.22-.8,0-1.28,1.28-2.98,1.98-4.78,1.98s-3.51-.7-4.78-1.98c-.11-.11-.26-.17-.4-.17s-.29,.06-.4,.17c-.22,.22-.22,.58,0,.8,.07,.07,.14,.14,.21,.2l-1.87,2.09c-.21,.23-.19,.59,.04,.8Z"/></g><g><rect class="e" x="77.27" y="104.02" width="5.86" height="2.41" rx="1.2" ry="1.2"/><rect class="e" x="23.13" y="104.02" width="5.86" height="2.41" rx="1.2" ry="1.2"/></g></g><g><path class="b" d="M166.84,155.57l-7.15-56.47c-.25-2-1.95-3.5-3.97-3.5h-54.38c-2.01,0-3.71,1.5-3.97,3.5l-7.15,56.47c-.22,1.76,1.03,3.37,2.8,3.58l27.76,3.27c1.67,.2,3.22-.91,3.57-2.56l4.18-19.81,4.18,19.81c.35,1.65,1.89,2.76,3.57,2.56l27.76-3.27c1.76-.21,3.02-1.81,2.8-3.58Z"/><path class="e" d="M90.84,150.75l-.61,4.82c-.22,1.76,1.03,3.37,2.8,3.58l27.76,3.27c1.67,.2,3.22-.91,3.57-2.56l1.06-5.03"/><path class="e" d="M131.66,154.82l1.06,5.03c.35,1.65,1.89,2.76,3.57,2.56l27.76-3.27c1.76-.21,3.02-1.81,2.8-3.58l-.61-4.82"/><path class="e" d="M160.34,104.14l-.64-5.05c-.25-2-1.95-3.5-3.97-3.5h-54.38c-2.01,0-3.71,1.5-3.97,3.5l-.64,5.05"/></g></g></svg>