<?xml version="1.0" encoding="UTF-8"?><svg id="a" xmlns="http://www.w3.org/2000/svg" viewBox="0 0 200 200"><defs><style>.b{fill:#ffdafc;}.c{fill:#fafafa;}.d{fill:#e8457d;}.e{fill:#ee7b96;}</style></defs><circle class="b" cx="100" cy="100" r="100"/><g><g><polygon class="e" points="158.12 151.02 161.68 161.71 175 158.7 173.12 147.78 158.12 151.02"/><g><polygon class="e" points="41.88 151.02 38.32 161.71 25 158.7 26.88 147.78 41.88 151.02"/><g><path class="c" d="M158.12,151.02l15-3.24s1.18-7.35-1.76-21.18c-2.94-13.82-12.06-41.18-15-54.12-2.94-12.94-7.35-25.59-9.41-30.3-2.06-4.71-2.65-7.94-5.29-7.94s-10.59,15.59-10.59,15.59l1.18,17.65s2.06,3.53,4.12,13.82c2.06,10.29,10.59,35.59,12.35,44.41,1.76,8.82,9.41,25.3,9.41,25.3Z"/><path class="c" d="M41.88,151.02l-15-3.24s-1.18-7.35,1.76-21.18c2.94-13.82,12.06-41.18,15-54.12,2.94-12.94,7.35-25.59,9.41-30.3,2.06-4.71,2.65-7.94,5.29-7.94s10.59,15.59,10.59,15.59l-1.18,17.65s-2.06,3.53-4.12,13.82c-2.06,10.29-10.59,35.59-12.35,44.41-1.76,8.82-9.41,25.3-9.41,25.3Z"/><g><path class="d" d="M87.98,19.49s2.7,5.51,5.24,6.69c10.34,4.8,14.67-1.63,14.67-1.63l4.13-5.06s-5.34-1.3-14.07-1.2c-4.31,.05-9.96,1.2-9.96,1.2Z"/><path class="c" d="M58.35,34.24l25.88-8.82s11.18,.59,13.82,1.47c2.65,.88,4.71,.59,4.71,4.71v120.89s-11.65,4-24.12-5.88c-6.94-5.5-15.96-6.22-15.96-6.22,0,0,6.26-12.88,6.55-44.96,.1-10.92-4.12-31.77-5-36.47-.88-4.71-5.88-24.71-5.88-24.71Z"/><path class="c" d="M141.65,34.24l-25.88-8.82s-11.18,.59-13.82,1.47c-2.65,.88-4.71,.59-4.71,4.71v120.89s11.65,4,24.12-5.88c6.94-5.5,15.96-6.22,15.96-6.22,0,0-6.26-12.88-6.55-44.96-.1-10.92,4.12-31.77,5-36.47,.88-4.71,5.88-24.71,5.88-24.71Z"/><path class="e" d="M98.06,26.89c-.22-.07-.5-.14-.83-.21v126.6c3.41-.07,5.53-.79,5.53-.79V31.6c0-4.12-2.06-3.82-4.71-4.71Z"/><path class="e" d="M87.98,19.49s-.94,2.59-1.45,3.36c-1.51,2.29-2.3,2.57-2.3,2.57,0,0-.08,2.12,2.87,5.13,3.83,3.91,6.33,7.51,6.33,7.51,0,0,.58-2.57,2.31-5.43,.86-1.43,4.24-5.19,4.24-5.19,0,0-2.74-.76-6.25-2.79-2.26-1.31-5.75-5.16-5.75-5.16Z"/><path class="e" d="M112.02,19.49s.94,2.59,1.45,3.36c1.51,2.29,2.3,2.57,2.3,2.57,0,0,.08,2.12-2.87,5.13-3.83,3.91-6.33,7.51-6.33,7.51,0,0-.58-2.57-2.31-5.43-.86-1.43-4.24-5.19-4.24-5.19,0,0,2.74-.76,6.25-2.79,2.26-1.31,5.75-5.16,5.75-5.16Z"/><circle class="d" cx="100" cy="31.05" r="1.24"/><circle class="d" cx="100" cy="48.18" r="1.24" transform="translate(30.07 134.38) rotate(-76.67)"/></g><circle class="d" cx="100" cy="65.31" r="1.24"/><circle class="d" cx="100" cy="82.44" r="1.24"/></g></g></g><path class="d" d="M101.24,99.57c0,.69-.56,1.24-1.24,1.24s-1.24-.56-1.24-1.24,.56-1.24,1.24-1.24,1.24,.56,1.24,1.24Z"/><circle class="d" cx="100" cy="116.7" r="1.24"/><circle class="d" cx="100" cy="133.83" r="1.24"/></g></svg>