<?xml version="1.0" encoding="UTF-8"?><svg id="a" xmlns="http://www.w3.org/2000/svg" viewBox="0 0 200 200"><defs><style>.b{fill:#ffdafc;}.c{fill:#fff;}.d{fill:#de181b;}</style></defs><circle class="b" cx="100" cy="100" r="100"/><g><g><path class="c" d="M100,98.63c-25.64-16.61-28.35-59.94-28.35-59.94l-18.49,3.11s.8,36.88-4.51,60.07c-2.12,9.26-3.38,18.7-3.54,28.2-.18,10.48,.4,22.8,3.32,31.23h103.14c2.92-8.43,3.5-20.75,3.32-31.23-.16-9.5-1.41-18.94-3.54-28.2-5.31-23.2-4.51-60.07-4.51-60.07l-18.49-3.11s-2.7,43.33-28.35,59.94h0Z"/><path class="c" d="M151.57,162.54H48.43c-.52,0-.99-.33-1.16-.83-2.48-7.17-3.63-17.82-3.39-31.65,.16-9.24,1.36-18.81,3.57-28.46,5.22-22.78,4.49-59.4,4.48-59.77-.01-.61,.42-1.13,1.02-1.24l18.49-3.11c.34-.06,.69,.03,.97,.25,.27,.22,.44,.54,.46,.88,.03,.42,2.92,42.15,27.13,58.55,24.21-16.4,27.1-58.12,27.13-58.55,.02-.35,.19-.67,.46-.88,.27-.22,.62-.31,.97-.25l18.49,3.11c.6,.1,1.04,.63,1.02,1.24,0,.37-.74,36.99,4.48,59.77,2.21,9.64,3.41,19.22,3.57,28.46,.24,13.83-.91,24.48-3.39,31.65-.17,.49-.64,.83-1.16,.83Zm-102.26-2.45h101.37c2.17-6.82,3.2-17.16,2.98-29.98-.15-9.07-1.33-18.47-3.51-27.95-4.78-20.87-4.64-53.08-4.56-59.31l-16.14-2.72c-.32,3.33-1.41,12.4-4.49,22.66-6.52,21.69-16.82,32.03-24.3,36.87-.33,.21-.73,.26-1.1,.12-.08-.03-.17-.07-.24-.12-7.48-4.85-17.78-15.18-24.3-36.87-3.09-10.26-4.17-19.33-4.49-22.66l-16.14,2.72c.08,6.23,.22,38.44-4.56,59.31-2.17,9.48-3.35,18.89-3.51,27.95-.22,12.82,.81,23.16,2.98,29.98Z"/></g><g><circle class="d" cx="140.24" cy="112.15" r="4.55"/><path class="d" d="M140.24,117.92c-3.18,0-5.77-2.59-5.77-5.77s2.59-5.77,5.77-5.77,5.77,2.59,5.77,5.77-2.59,5.77-5.77,5.77Zm0-9.09c-1.83,0-3.32,1.49-3.32,3.32s1.49,3.32,3.32,3.32,3.32-1.49,3.32-3.32-1.49-3.32-3.32-3.32Z"/></g><g><circle class="d" cx="77.86" cy="125.03" r="4.55"/><path class="d" d="M77.86,130.8c-3.18,0-5.77-2.59-5.77-5.77s2.59-5.77,5.77-5.77,5.77,2.59,5.77,5.77-2.59,5.77-5.77,5.77Zm0-9.09c-1.83,0-3.32,1.49-3.32,3.32s1.49,3.32,3.32,3.32,3.32-1.49,3.32-3.32-1.49-3.32-3.32-3.32Z"/></g><g><circle class="d" cx="121.35" cy="93.96" r="4.55"/><path class="d" d="M121.35,99.74c-3.18,0-5.77-2.59-5.77-5.77s2.59-5.77,5.77-5.77,5.77,2.59,5.77,5.77-2.59,5.77-5.77,5.77Zm0-9.09c-1.83,0-3.32,1.49-3.32,3.32s1.49,3.32,3.32,3.32,3.32-1.49,3.32-3.32-1.49-3.32-3.32-3.32Z"/></g><g><circle class="d" cx="135.69" cy="66.12" r="4.55"/><path class="d" d="M135.69,71.89c-3.18,0-5.77-2.59-5.77-5.77s2.59-5.77,5.77-5.77,5.77,2.59,5.77,5.77-2.59,5.77-5.77,5.77Zm0-9.09c-1.83,0-3.32,1.49-3.32,3.32s1.49,3.32,3.32,3.32,3.32-1.49,3.32-3.32-1.49-3.32-3.32-3.32Z"/></g><g><circle class="d" cx="121.35" cy="131.64" r="4.55"/><path class="d" d="M121.35,137.41c-3.18,0-5.77-2.59-5.77-5.77s2.59-5.77,5.77-5.77,5.77,2.59,5.77,5.77-2.59,5.77-5.77,5.77Zm0-9.09c-1.83,0-3.32,1.49-3.32,3.32s1.49,3.32,3.32,3.32,3.32-1.49,3.32-3.32-1.49-3.32-3.32-3.32Z"/></g><g><circle class="d" cx="101.39" cy="114.06" r="4.55"/><path class="d" d="M101.39,119.83c-3.18,0-5.77-2.59-5.77-5.77s2.59-5.77,5.77-5.77,5.77,2.59,5.77,5.77-2.59,5.77-5.77,5.77Zm0-9.09c-1.83,0-3.32,1.49-3.32,3.32s1.49,3.32,3.32,3.32,3.32-1.49,3.32-3.32-1.49-3.32-3.32-3.32Z"/></g><g><circle class="d" cx="62.2" cy="103.06" r="4.55"/><path class="d" d="M62.2,108.83c-3.18,0-5.77-2.59-5.77-5.77s2.59-5.77,5.77-5.77,5.77,2.59,5.77,5.77-2.59,5.77-5.77,5.77Zm0-9.09c-1.83,0-3.32,1.49-3.32,3.32s1.49,3.32,3.32,3.32,3.32-1.49,3.32-3.32-1.49-3.32-3.32-3.32Z"/></g><g><circle class="d" cx="94.98" cy="146.35" r="4.55"/><path class="d" d="M94.98,152.12c-3.18,0-5.77-2.59-5.77-5.77s2.59-5.77,5.77-5.77,5.77,2.59,5.77,5.77-2.59,5.77-5.77,5.77Zm0-9.09c-1.83,0-3.32,1.49-3.32,3.32s1.49,3.32,3.32,3.32,3.32-1.49,3.32-3.32-1.49-3.32-3.32-3.32Z"/></g><g><circle class="d" cx="133.53" cy="150.9" r="4.55"/><path class="d" d="M133.53,156.67c-3.18,0-5.77-2.59-5.77-5.77s2.59-5.77,5.77-5.77,5.77,2.59,5.77,5.77-2.59,5.77-5.77,5.77Zm0-9.09c-1.83,0-3.32,1.49-3.32,3.32s1.49,3.32,3.32,3.32,3.32-1.49,3.32-3.32-1.49-3.32-3.32-3.32Z"/></g><g><circle class="d" cx="59.57" cy="149.27" r="4.55"/><path class="d" d="M59.57,155.05c-3.18,0-5.77-2.59-5.77-5.77s2.59-5.77,5.77-5.77,5.77,2.59,5.77,5.77-2.59,5.77-5.77,5.77Zm0-9.09c-1.83,0-3.32,1.49-3.32,3.32s1.49,3.32,3.32,3.32,3.32-1.49,3.32-3.32-1.49-3.32-3.32-3.32Z"/></g><g><circle class="d" cx="66.74" cy="76.58" r="4.55"/><path class="d" d="M66.74,82.35c-3.18,0-5.77-2.59-5.77-5.77s2.59-5.77,5.77-5.77,5.77,2.59,5.77,5.77-2.59,5.77-5.77,5.77Zm0-9.09c-1.83,0-3.32,1.49-3.32,3.32s1.49,3.32,3.32,3.32,3.32-1.49,3.32-3.32-1.49-3.32-3.32-3.32Z"/></g></g></svg>