<?xml version="1.0" encoding="UTF-8"?><svg id="a" xmlns="http://www.w3.org/2000/svg" viewBox="0 0 200 200"><defs><style>.b{fill:#ffdafc;}.c{fill:#ecf0f1;}.d{fill:#cd1c1b;}.e{fill:#df181b;}</style></defs><circle class="b" cx="100" cy="100" r="100"/><g><path class="e" d="M128.29,51.71c-2.35-13.49-10.24-31.71-10.24-31.71l-18.05,.13-18.05-.13s-7.89,18.22-10.24,31.71c-3.36,19.27-18.54,121.46-18.54,121.46,0,0,20.49,6.83,23.41,6.83s22.44-5.37,22.44-5.37c0,0-2.52-63.41-2.52-64.88s3.5-50.24,3.5-50.24c0,0,3.5,48.78,3.5,50.24s-2.52,64.88-2.52,64.88c0,0,19.51,5.37,22.44,5.37s23.41-6.83,23.41-6.83c0,0-15.17-102.19-18.54-121.46Z"/><g><path class="d" d="M125.95,41.93c-5.41-2.97-10.21-9.17-12.53-17.11-.47-1.6-.82-3.2-1.05-4.78l5.68-.04s4.67,10.8,7.9,21.93Z"/><path class="d" d="M74.05,41.93c5.41-2.97,10.21-9.17,12.53-17.11,.47-1.6,.82-3.2,1.05-4.78l-5.68-.04s-4.67,10.8-7.9,21.93Z"/><path class="d" d="M100,20.13h-3.21v18.54c0,1.77,1.44,3.21,3.21,3.21V20.13Z"/><path class="c" d="M100,42.38c-2.04,0-3.71-1.66-3.71-3.71V20.13h1v18.54c0,1.49,1.21,2.71,2.71,2.71v1Z"/><g><polygon class="d" points="118.11 83.93 118.11 117.36 122.67 169.5 122.67 116.69 118.11 83.93"/><polygon class="d" points="81.89 83.93 81.89 117.36 77.33 169.5 77.33 116.69 81.89 83.93"/></g></g></g></svg>