<?xml version="1.0" encoding="UTF-8"?><svg id="a" xmlns="http://www.w3.org/2000/svg" viewBox="0 0 200 200"><defs><style>.b{fill:#00ade9;}.c{fill:#ffdafc;}.d{fill:#ecf0f1;}.e{fill:#144974;}.f{fill:#07385c;}.g{fill:#4cc1f0;}</style></defs><circle class="c" cx="100" cy="100" r="100"/><g><g><g><polygon class="b" points="134.78 41.48 133.27 41.16 103.33 34.72 101.83 34.4 70.38 27.64 65.33 51.16 96.78 57.92 98.28 58.24 128.22 64.67 129.72 65 161.17 71.75 166.23 48.24 134.78 41.48"/><path class="b" d="M160.86,73.2l-95.85-20.6c-.8-.17-1.31-.96-1.14-1.76l5.05-23.52c.17-.8,.96-1.31,1.76-1.14l95.85,20.6c.8,.17,1.31,.96,1.14,1.76l-5.05,23.52c-.17,.8-.96,1.31-1.76,1.14Zm-93.77-23.18l92.95,19.97,4.43-20.62L71.52,29.4l-4.43,20.62Z"/></g><g><path class="g" d="M34.18,166.19l-.41-58.57c0-1.08,.46-2.11,1.27-2.82l23.06-20.05,7.54-35.09,95.85,20.6-24.55,114.23c-.43,2-2.4,3.27-4.4,2.84l-98.36-21.14Z"/><path class="g" d="M132.24,188.78l-98.36-21.14c-.68-.15-1.17-.74-1.17-1.44l-.41-58.57c-.01-1.52,.64-2.96,1.78-3.95l22.69-19.72,7.44-34.61c.17-.8,.96-1.31,1.76-1.14l95.85,20.6c.8,.17,1.31,.96,1.14,1.76l-24.55,114.23c-.6,2.8-3.37,4.58-6.16,3.98Zm-96.58-23.79l97.2,20.89c1.2,.26,2.38-.51,2.64-1.71l24.24-112.79-92.95-19.97-7.23,33.64c-.07,.31-.23,.6-.48,.81l-23.06,20.05c-.49,.43-.77,1.04-.76,1.69l.4,57.38Z"/></g><rect class="b" x="101.92" y="72.69" width="14.4" height="46.57" transform="translate(-7.64 182.49) rotate(-77.87)"/><polygon class="b" points="79.5 122.96 85.16 96.62 130.7 106.4 125.04 132.75 99.48 140.86 79.5 122.96"/><g><path class="d" d="M129.38,105.37l-7.29-1.57c-.81-.17-1.61,.34-1.79,1.16-.17,.81,.34,1.61,1.16,1.79l7.29,1.57c.81,.17,1.61-.34,1.78-1.16s-.34-1.61-1.15-1.79Z"/><path class="d" d="M95.61,98.11l-8.82-1.9c-.81-.17-1.61,.34-1.79,1.16s.34,1.61,1.16,1.79l8.82,1.9c.81,.17,1.61-.34,1.79-1.16s-.34-1.61-1.16-1.79Z"/><path class="d" d="M113.27,101.9l-8.83-1.9c-.81-.17-1.61,.34-1.78,1.16s.34,1.61,1.15,1.79l8.83,1.9c.81,.17,1.61-.34,1.78-1.16s-.34-1.61-1.15-1.79Z"/></g><g><rect class="g" x="88.94" y="42.6" width="22.55" height="5.96" transform="translate(34.59 133.98) rotate(-77.87)"/><path class="g" d="M101.89,58.99l-8.73-1.88,5.36-24.94,8.73,1.88-5.36,24.94Zm-5.2-4.15l2.93,.63,4.11-19.15-2.93-.63-4.11,19.15Z"/></g><g><rect class="g" x="120.38" y="49.36" width="22.55" height="5.96" transform="translate(52.82 170.06) rotate(-77.87)"/><path class="g" d="M133.34,65.75l-8.73-1.88,5.36-24.94,8.73,1.88-5.36,24.94Zm-5.21-4.15l2.93,.63,4.11-19.15-2.93-.63-4.11,19.15Z"/></g></g><g><g><polygon class="f" points="104.8 19.35 103.3 19.67 73.36 26.1 71.85 26.43 40.41 33.18 45.46 56.7 76.91 49.94 78.41 49.62 108.35 43.19 109.86 42.86 141.31 36.1 136.25 12.59 104.8 19.35"/><path class="f" d="M141.62,37.55L45.77,58.15c-.8,.17-1.59-.34-1.76-1.14l-5.05-23.52c-.17-.8,.34-1.59,1.14-1.76L135.94,11.14c.8-.17,1.59,.34,1.76,1.14l5.05,23.52c.17,.8-.34,1.59-1.14,1.76ZM46.6,54.94l92.95-19.97-4.43-20.62L42.17,34.32l4.43,20.62Z"/></g><g><path class="e" d="M64.32,174.37l-24.44-53.23c-.45-.98-.45-2.11,0-3.1l12.79-27.75-7.54-35.09,95.85-20.6,24.55,114.23c.43,2-.84,3.97-2.84,4.4l-98.36,21.14Z"/><path class="e" d="M163,154.69l-98.36,21.14c-.68,.15-1.37-.2-1.66-.83l-24.44-53.23c-.63-1.38-.63-2.96,0-4.34l12.58-27.3-7.44-34.61c-.17-.8,.34-1.59,1.14-1.76l95.85-20.6c.8-.17,1.59,.34,1.76,1.14l24.55,114.23c.6,2.8-1.19,5.56-3.98,6.16Zm-97.82,17.99l97.2-20.89c1.2-.26,1.96-1.44,1.71-2.64l-24.24-112.78L46.9,56.34l7.23,33.64c.07,.31,.03,.64-.1,.93l-12.79,27.75c-.27,.59-.27,1.27,0,1.86l23.94,52.15Z"/></g><rect class="f" x="80.51" y="72.37" width="46.57" height="14.4" transform="translate(-14.4 23.58) rotate(-12.13)"/><polygon class="f" points="87.88 116.34 82.22 90 127.75 80.21 133.42 106.56 113.45 124.46 87.88 116.34"/><g><path class="d" d="M126.13,79.81l-7.29,1.57c-.81,.17-1.33,.97-1.16,1.79,.17,.81,.97,1.33,1.79,1.16l7.29-1.57c.81-.17,1.33-.97,1.15-1.79s-.97-1.33-1.78-1.16Z"/><path class="d" d="M92.36,87.07l-8.82,1.9c-.81,.17-1.33,.97-1.16,1.79,.17,.81,.97,1.33,1.79,1.16l8.82-1.9c.81-.17,1.33-.97,1.16-1.79s-.97-1.33-1.79-1.16Z"/><path class="d" d="M110.01,83.27l-8.83,1.9c-.81,.17-1.33,.97-1.15,1.79s.97,1.33,1.78,1.16l8.83-1.9c.81-.17,1.33-.97,1.15-1.79s-.97-1.33-1.78-1.16Z"/></g><g><rect class="e" x="71.99" y="26.01" width="5.96" height="22.55" transform="translate(-6.16 16.58) rotate(-12.13)"/><path class="e" d="M82.02,48.82l-8.73,1.88-5.36-24.94,8.73-1.88,5.36,24.94Zm-6.45-1.65l2.93-.63-4.11-19.15-2.93,.63,4.11,19.15Z"/></g><g><rect class="e" x="103.44" y="19.26" width="5.96" height="22.55" transform="translate(-4.04 23.04) rotate(-12.13)"/><path class="e" d="M113.46,42.06l-8.73,1.88-5.36-24.94,8.73-1.88,5.36,24.94Zm-6.45-1.65l2.93-.63-4.11-19.15-2.93,.63,4.11,19.15Z"/></g></g></g></svg>