<?xml version="1.0" encoding="UTF-8"?><svg id="a" xmlns="http://www.w3.org/2000/svg" viewBox="0 0 200 200"><defs><style>.c{fill:#0094d5;}.d{fill:#ffdafc;}.e{fill:#4cc1f0;}.f{fill:#fafafa;}.f,.g{fill-rule:evenodd;}.g{fill:#00ade9;}</style></defs><circle class="d" cx="100" cy="100" r="100"/><g id="b"><path class="g" d="M62.5,155.63c0,4.69,9.37,9.37,37.5,9.37s37.5-4.69,37.5-9.37v-4.69H62.5v4.69Zm-28.13,4.69c2.34,0,14.06-2.2,14.06-4.69v-9.38l-18.75,4.69s2.34,9.37,4.69,9.37m117.19-14.06v9.38c0,2.49,11.72,4.69,14.06,4.69s4.69-9.37,4.69-9.37l-18.75-4.69Z"/><path class="e" d="M160.94,52.5c-5.57-5.57-13.25-12.38-21.28-13.74-2.09-.36-4.22-.35-6.34-.35l-70.16,.04c-1.48,0-2.98,0-4.43,.34-2.22,.52-4.18,1.81-6.08,3.07-11.23,7.46-17.92,15.36-20.5,29.01-4.98,26.27-1.26,53.35-2.56,80.05,5.17-.07,10.33-.77,15.32-2.1,.88-.23,1.79-.51,2.43-1.14,.95-.93,1.08-2.39,1.18-3.71,.96-13.67,2.87-27.28,5.7-40.68,.65-3.09,1.43-6.32,3.57-8.63v49.32c0,1.25,0,2.53,.49,3.69,.9,2.17,3.22,3.35,5.43,4.14,4.96,1.77,10.24,2.44,15.49,2.92,13.82,1.27,27.75,1.27,41.57,0,5.25-.48,10.53-1.16,15.5-2.92,2.21-.79,4.54-1.97,5.44-4.14,.48-1.15,.48-2.43,.48-3.68v-49.31c2.08,2.11,2.83,5.16,3.44,8.06,2.95,13.88,4.94,27.97,5.95,42.13,.07,.93,.16,1.93,.76,2.65,.55,.65,1.4,.93,2.22,1.16,4.96,1.41,10.11,2.16,15.27,2.24,1.07,.02,.84-47.08,.64-51.38-.4-8.51-1.17-17.01-2.52-25.42-1.09-6.83-1.81-16.39-7.01-21.59"/><path class="f" d="M90.63,43.12c-2.59,0-4.69,2.1-4.69,4.69v23.44c0,2.59,2.1,4.69,4.69,4.69s4.69-2.1,4.69-4.69v-23.44c0-2.59-2.1-4.69-4.69-4.69m18.75,0c-2.59,0-4.69,2.1-4.69,4.69v18.75c0,2.59,2.1,4.69,4.69,4.69s4.69-2.1,4.69-4.69v-18.75c0-2.59-2.1-4.69-4.69-4.69"/><path class="g" d="M132.81,113.44c-1.76,0-4.69,2.79-4.69,4.69,0,2.25,8.5,23.44,14.06,23.44v-14.06c-2.78,0-7.37-14.06-9.38-14.06m-65.62,0c-2,0-6.59,14.06-9.37,14.06v14.06c5.57,0,14.06-21.19,14.06-23.44,0-1.9-2.93-4.69-4.69-4.69"/><path class="c" d="M109.37,15h-18.75s-18.75,7.12-18.75,14.06c0,9.34,23.44,23.44,23.44,23.44,0,0,.87,9.37,4.69,9.37s4.69-9.37,4.69-9.37c0,0,23.44-14.1,23.44-23.44,0-6.94-18.75-14.06-18.75-14.06"/><path class="g" d="M90.63,15c-14.06,0-32.81,14.75-32.81,23.44,0,0,16.93,14.06,37.5,14.06,0,0-14.06-14.71-14.06-23.44,0-6.27,9.38-14.06,9.38-14.06m51.56,23.44c0-8.69-18.75-23.44-32.81-23.44,0,0,9.37,7.79,9.37,14.06,0,8.73-14.06,23.44-14.06,23.44,20.57,0,37.5-14.06,37.5-14.06"/></g></svg>