<?xml version="1.0" encoding="UTF-8"?><svg id="a" xmlns="http://www.w3.org/2000/svg" viewBox="0 0 200 200"><defs><style>.b{fill:#ef7b97;}.c{fill:#fff;}.d{fill:#cd1c1b;}</style></defs><circle class="b" cx="100" cy="100" r="100"/><path class="c" d="M162.1,123.24c0,16.57-13.43,30-30,30s-30-13.43-30-30h60Z"/><path class="d" d="M52.28,76.79c8.26,4.39,17.69,6.87,27.69,6.87,26.72,0,49.3-17.72,56.63-42.06h0c10.77,14.54,28.05,23.96,47.54,23.96,3.23,0,6.4-.26,9.5-.76h0C179.39,26.94,142.84,0,100,0,44.77,0,0,44.77,0,100c0,37.97,21.16,71,52.33,87.93l-.06-.03v-56.1c-15.19,0-27.5-12.31-27.5-27.5s12.31-27.5,27.5-27.5"/></svg>