<?xml version="1.0" encoding="UTF-8"?><svg id="a" xmlns="http://www.w3.org/2000/svg" viewBox="0 0 200 200"><defs><style>.b{fill:#ef7b97;}.c{fill:#fff;}.d{fill:#cd1c1b;}.e{fill:#df181b;}</style></defs><circle class="b" cx="100" cy="100" r="100"/><g><g><path class="e" d="M143.71,170.5H55.6c-6.06,0-11.11-4.63-11.64-10.66l-6.37-72.57h124.11l-6.37,72.57c-.53,6.03-5.58,10.66-11.64,10.66Z"/><g><path class="c" d="M96,170.5v-43.16c0-2.02,1.63-3.65,3.65-3.65s3.65,1.63,3.65,3.65v43.16h-7.3Z"/><path class="c" d="M66.8,170.5v-43.16c0-2.02,1.63-3.65,3.65-3.65s3.65,1.63,3.65,3.65v43.16h-7.3Z"/><path class="c" d="M125.21,170.5v-43.16c0-2.02,1.63-3.65,3.65-3.65s3.65,1.63,3.65,3.65v43.16h-7.3Z"/></g><polygon class="d" points="39.14 104.82 37.6 87.27 161.71 87.27 160.17 104.82 39.14 104.82"/></g><circle class="c" cx="82.08" cy="87.55" r="5.54"/><rect class="e" x="26.99" y="79.38" width="146.01" height="17.52" rx="2.92" ry="2.92"/><g><circle class="c" cx="85.05" cy="88.14" r="5.54"/><rect class="c" x="58.85" y="29.09" width="7.3" height="73.01" rx=".73" ry=".73" transform="translate(-28.07 63.41) rotate(-45)"/></g><g><circle class="c" cx="114.26" cy="88.14" r="5.54"/><rect class="c" x="133.15" y="29.09" width="7.3" height="73.01" rx=".73" ry=".73" transform="translate(187.16 208.7) rotate(-135)"/></g></g></svg>