<?xml version="1.0" encoding="UTF-8"?><svg id="Layer_1" xmlns="http://www.w3.org/2000/svg" xmlns:xlink="http://www.w3.org/1999/xlink" viewBox="0 0 200 200"><defs><style>.cls-1{fill:none;}.cls-2{clip-path:url(#clippath);}.cls-3{fill:#00ade9;}.cls-4{fill:#ef7b97;}.cls-5{fill:#ffdafc;}.cls-6{fill:#bb7259;}.cls-7{fill:#452f38;}.cls-8{fill:#4cc1f0;}</style><clipPath id="clippath"><circle class="cls-1" cx="100" cy="100" r="100"/></clipPath></defs><circle class="cls-5" cx="100" cy="100" r="100"/><g class="cls-2"><g id="V2R1NS.tif"><g><path class="cls-8" d="M59.31,200c-3.24-3.19-5.33-7.13-6.95-11.29-3.63-9.3-4.8-19.04-4.34-28.94,.64-13.61,6.99-23.89,18.67-30.86,3.62-2.16,7.26-4.27,10.89-6.39,3.8-2.22,6.18-5.23,6.63-9.86,.65-6.63,4.72-11.36,9.56-15.5,5.17-4.43,11.1-7.73,16.87-11.27,1.99-1.06,4.12-.92,6.25-.77,3.82,1.37,5.55,4.32,6.28,8.11,.7,3.61,1.19,7.25,1.18,10.92-.01,3.06,.45,6.09,.42,9.16-.08,8.45-.89,16.84-1.71,25.23-.81,8.33-1.61,16.67-2.38,25.01-.61,6.63-1.15,13.27-1.71,19.91-.4,4.75-.37,9.52-.82,14.27-.07,.79,.02,1.6-.56,2.26H59.31Z"/><path class="cls-3" d="M135.43,115.04c.11,6.37-.55,12.7-1.13,19.03-.75,8.21-1.64,16.42-2.4,24.63-.9,9.74-1.84,19.47-2.39,29.24-.18,3.24-.4,6.47-.51,9.71-.03,.9-.25,1.65-.77,2.35h-10.63c.35-9.15,.86-18.28,1.75-27.39,.71-7.28,1.26-14.58,1.95-21.87,.65-6.86,1.5-13.7,2.05-20.56,.59-7.42,1.12-14.84,.61-22.31-.34-5.05-.32-10.11-1.47-15.09-.73-3.16-2.34-6.17-5.61-7.3-.14-.05,.93-.58,1.47-.58,2.79,0,5.59-.22,8.37,.13,1.2,.42,1.46,1.53,1.83,2.55,2.11,5.82,3.92,11.74,5.6,17.7,.36,2.14,.91,4.25,1.34,6.37,.23,1.14,.3,2.27-.05,3.4Z"/><path class="cls-7" d="M135.43,115.04c-.2-3.32-.95-6.49-1.7-9.78,.4-1.31,1.3-2.34,1.98-3.49,4.34-7.42,5.92-15.32,4.1-23.79-1.47-6.87-3.06-13.71-3.85-20.71-.62-5.46-.97-10.94-1.3-16.42-.28-4.69-.55-9.41-1.64-13.99-1.58-6.64-5.56-11.12-12.2-13.13-.99-.3-2.39,0-2.87-1.42,8.12-.77,16.03-.57,22.37,5.61,3.23,3.15,4.48,7.29,5.14,11.66,1.04,6.9,1.16,13.87,1.74,20.8,.5,5.91,1.29,11.8,2.38,17.63,.88,4.7,2.47,9.19,2.74,14s-.43,9.83-2.1,14.44c-1.39,3.84-3.46,7.44-6.05,10.6-1.29,1.58-2.72,3.06-4.26,4.4-.62,.54-3.36,2.66-4.47,3.6Z"/><path class="cls-7" d="M117.93,12.3c1.74,.85,3.69,1.02,5.46,1.82,5.77,2.57,9.03,7.14,10.24,13.13,1.02,5.05,1.29,10.22,1.6,15.38,.44,7.38,.93,14.78,2.39,22.06,1.15,5.71,2.53,11.39,3.29,17.15,.77,5.84-.45,11.53-3.03,16.85-1.13,2.34-2.15,4.78-4.17,6.58-1.94-6.02-3.62-12.13-5.83-18.06-.21-.56-.49-1.1-.74-1.65-1.09-1.52-1.35-3.39-2.08-5.06-.44-1-.77-2.06-1.06-3.12-.53-1.92-1.73-2.97-3.6-3.74-6.91-2.84-12.21-7.71-16.48-13.77-5.18-7.35-8.31-15.58-10.37-24.27-.19-.8,.19-1.57-.14-2.32-.57-3.74-1.38-7.45-1.6-11.24-.05-.86-.05-1.58,.86-1.99,8.1-3.6,16.35-6.74,25.25-7.74Z"/><path class="cls-6" d="M93.43,33.26c1.17,4.15,2.1,8.37,3.65,12.42,2.85,7.44,6.63,14.29,12.33,19.94,3.64,3.6,7.78,6.47,12.63,8.21,.96,.35,1.49,.88,1.8,1.84,1.09,3.3,2.57,6.46,3.31,9.87-3.43-.03-6.86-.05-10.29-.08-2.08,.14-4.15,.28-6.23,.42-1.07-3.3-2.24-6.58-3.18-9.92-.47-1.7-1.25-2.45-3.05-2.37-1.45,.06-2.93-.1-4.35-.38-2.99-.6-4.85-2.64-6.22-5.22-1.76-3.31-2.35-6.95-2.54-10.59-.44-8.13,.36-16.19,2.13-24.15Z"/></g></g><path class="cls-4" d="M75.94,162.94c.58-6.26,2.4-11.25,5.45-14.34,4.4-4.9,9.79-2.66,10.35,4.41,.57,6.39-7.85,25.59-9.66,28.7-2.26,3.72-4.54,2.23-8.06,.02-6.53-4.81-20.57-18.69-15.89-26.91,4.42-7.76,15.02,3.38,17.8,8.1Z"/></g></svg>