<?xml version="1.0" encoding="UTF-8"?><svg id="a" xmlns="http://www.w3.org/2000/svg" viewBox="0 0 200 200"><defs><style>.b{fill:#ffdafc;}.c{fill:#fafafa;}.d{fill:#df181b;}.e{fill:#07385c;}</style></defs><circle class="b" cx="100" cy="100" r="100"/><g><rect class="d" x="57.14" y="34" width="85.71" height="8.57"/><rect class="d" x="57.14" y="51.14" width="85.71" height="8.57"/><polygon class="c" points="160 154 108.57 154 100 102.57 91.43 154 40 154 43.47 128.52 52.86 59.71 147.14 59.71 160 154"/><rect class="c" x="57.14" y="42.57" width="85.71" height="8.57"/><g><path class="e" d="M110.71,76.86c-1.18,0-2.14-.96-2.14-2.14v-25.71c0-1.18,.96-2.14,2.14-2.14s2.14,.96,2.14,2.14v25.71c0,1.18-.96,2.14-2.14,2.14Z"/><path class="e" d="M89.29,76.86c-1.18,0-2.14-.96-2.14-2.14v-25.71c0-1.18,.96-2.14,2.14-2.14s2.14,.96,2.14,2.14v25.71c0,1.18-.96,2.14-2.14,2.14Z"/></g><circle class="d" cx="89.29" cy="76.86" r="4.29"/><circle class="d" cx="110.71" cy="76.86" r="4.29"/></g></svg>