<?xml version="1.0" encoding="UTF-8"?><svg id="a" xmlns="http://www.w3.org/2000/svg" viewBox="0 0 200 200"><defs><style>.b{fill:#ffdafc;}.c{fill:#ffe551;}.d{fill:#fff;}.e{fill:#ffd450;}.f{fill:#ffc72d;}.g{fill:#b45198;}.h{fill:#a53f85;}.i{fill:#c060a1;}</style></defs><circle class="b" cx="100" cy="100" r="100"/><g><polygon class="e" points="100.29 143.26 100.29 154.09 54.07 154.09 54.27 147.97 54.43 143.26 100.29 143.26"/><path class="g" d="M56.98,65.83l-2.39,72.72-.15,4.71h45.86V65.83H56.98Zm29.18,67.76h-22.05v-27.43h22.05v27.43Z"/><rect class="d" x="64.11" y="106.17" width="22.05" height="27.43"/><path class="e" d="M100,41.07v24.76H56.98l1.09-33.15h6.44v3.67c0,2.61,2.11,4.72,4.72,4.72h30.78Z"/><path class="g" d="M145.42,138.55l-2.39-72.72h-44.98l2.5,77.87h45.05l-.18-5.15Zm-9.52-4.96h-22.05v-27.43h22.05v27.43Z"/><rect class="d" x="113.85" y="106.17" width="22.05" height="27.43"/><path class="e" d="M143.03,65.83h-43.32v-24.76h31.07c2.6,0,4.71-2.11,4.71-4.72v-3.67h6.44l1.09,33.15Z"/><polygon class="e" points="145.93 154.09 98.04 154.09 98.04 143.71 145.59 143.71 145.73 147.97 145.93 154.09"/><polygon class="e" points="54.9 128.93 54.58 138.55 24.53 138.55 26.21 128.93 54.9 128.93"/><path class="i" d="M58.06,32.68l-3.17,96.25H26.21l11.93-68.35c1.27-7.32,4.92-14.01,10.37-19.06l9.55-8.84Z"/><polygon class="i" points="54.27 147.97 21.78 147.97 21.78 138.56 54.58 138.56 54.27 147.97"/><polygon class="e" points="175.47 138.55 145.42 138.55 145.1 128.93 173.79 128.93 175.47 138.55"/><path class="i" d="M173.79,128.93h-28.69l-3.16-96.25,9.55,8.84c5.45,5.04,9.1,11.74,10.38,19.06l11.93,68.35Z"/><polygon class="i" points="178.22 138.55 178.22 147.97 145.73 147.97 145.59 143.71 145.42 138.55 178.22 138.55"/><rect class="i" x="88.17" y="25.09" width="23.66" height="15.98"/><path class="g" d="M88.17,25.09v15.98h-18.95c-2.6,0-4.72-2.11-4.72-4.72v-6.53c0-2.61,2.11-4.72,4.72-4.72h18.95Z"/><path class="g" d="M135.49,29.81v6.53c0,2.61-2.11,4.72-4.72,4.72h-18.95v-15.98h18.95c2.6,0,4.72,2.11,4.72,4.72Z"/><circle class="d" cx="104.59" cy="31.31" r="3.09"/><rect class="h" x="98.33" y="41.07" width="3.34" height="113.02"/><rect class="f" x="64.11" y="106.17" width="22.05" height="27.43"/><rect class="c" x="64.11" y="106.17" width="22.05" height="9.78"/><rect class="f" x="113.85" y="106.17" width="22.05" height="27.43"/><rect class="c" x="113.85" y="106.17" width="22.05" height="9.78"/></g></svg>