<?xml version="1.0" encoding="UTF-8"?><svg id="a" xmlns="http://www.w3.org/2000/svg" viewBox="0 0 138.7478 138.7478"><defs><style>.b{fill:#ce2327;}.c{fill:#fff;}.d{fill:#eba78d;}.e{fill:#e36786;}.f{fill:#df2127;}.g{fill:#f4dae9;}.h{fill:#ef7c98;}.i{fill:#bd725a;}.j{fill:#643532;}.k{fill:#53c1ef;}.l{fill:#010202;}</style></defs><circle class="k" cx="69.3739" cy="69.3739" r="69.3739"/><path class="d" d="M113.1979,52.5587s8.5-10-.9-18.5c-3.5-3.1-8.1-4.4-12.7-3.7,.3-3.1,.8-11.3-6-16.3s-15.5-2.4-18.7,1.6-2.4,11.3-3.4,16.5-.3,8.7,2.9,10.5c2.1,1.1,4.6,1.3,6.8,.5l-.8,4.7c-3.9,.6-7.7,1.6-11.3,3.1-5.8,2.6-18.7,9.6-18.7,9.6-.4-1.3-2.5-22.8-3.4-29.8-.7-5.3-3.2-11.9-5.1-10.5s-1.1,5.5-1.1,5.5l-9.6,10s-4.8,34.2,6.6,43.5c8.3,6.8,30-4.1,30-4.1l-3,20.5h25.8s-4.8,1.3-14.8,5.8c-11.7,5.3-18.5,20-17.7,21.1s3,.2,6-3.6c-2.6,9.8,0,9,1.7,8.9,1.7,2.5,4-.6,4-.6,0,0,3,2.8,7.7-10.4,2.1-1,4.1-2.4,5.8-4,0,0,30-1.9,35.8-12.4s2.1-38-5.9-47.9Z"/><path class="i" d="M64.2978,119.3587h-.1c-.2-.1-.3-.3-.2-.5,.2-.5,.4-1.2,.6-1.9,.5-2,1.2-4,2-6,.1-.2,.3-.3,.5-.2h0c.2,.1,.3,.3,.2,.5-.8,1.9-1.5,3.8-2,5.8-.2,.7-.4,1.4-.6,2-.2,.3-.3,.3-.4,.3Z"/><path class="i" d="M65.9978,128.2587h0c-.3,0-.4-.2-.4-.4h0l.1-.4c1-5.1,2.5-10,4.5-14.8,.1-.2,.3-.3,.5-.2h0c.2,.1,.3,.3,.2,.5-2,4.7-3.5,9.6-4.5,14.6l-.1,.4c0,.2-.1,.3-.3,.3Z"/><path class="i" d="M69.8979,127.6587h0c-.3,0-.4-.2-.4-.4h0c1.1-4.4,2.6-8.6,4.3-12.8,.1-.2,.3-.3,.5-.2h0c.2,.1,.3,.3,.2,.5h0c-1.7,4.1-3.1,8.3-4.3,12.7,0,.1-.1,.2-.3,.2Z"/><path class="i" d="M81.1979,43.5587c-.2,0-.3-.1-.4-.3-.1-.2,.1-.4,.2-.5,1.2-.3,2.3-.8,3.4-1.4,.2-.1,.4-.1,.5,.1s.1,.4-.1,.5h-.1c-1.1,.6-2.3,1.1-3.5,1.5v.1Z"/><path class="l" d="M99.3979,35.2587h0c-.2,0-.3-.2-.3-.4h0c.2-1.5,.4-3.3,.5-4.6,0-.2,.3-.3,.5-.3s.3,.2,.3,.4c-.1,1.3-.3,3.1-.5,4.6-.1,.2-.3,.3-.5,.3h0Z"/><path class="l" d="M80.4978,34.3587c-1.3,0-2.5-.7-3.1-1.9-1-2-.5-4.4,1.3-5.7,.8-.6,1.9-.8,2.9-.6,2.1,.6,3.3,2.8,2.7,4.9-.2,1-.8,2-1.7,2.6-.6,.5-1.3,.7-2.1,.7Zm.3-7.5c-.6,0-1.2,.2-1.7,.5-1.5,1.1-1.9,3.1-1.1,4.7,.7,1.4,2.3,1.9,3.7,1.2,.1-.1,.3-.2,.4-.2,.7-.5,1.2-1.3,1.4-2.1,.5-1.7-.5-3.5-2.2-4-.1,0-.3,0-.5001-.1Z"/><path class="l" d="M77.1979,30.0587h0l-1.3-.2c-.2,0-.4-.2-.4-.4s.2-.4,.4-.4h.1l1.3,.2c.2,0,.3,.2,.3,.4s-.2,.4-.4,.4Z"/><path class="i" d="M41.1979,44.3587c-.1,0-.3-.1-.3-.2-2.6-4.1-2.2-9.4,.8-13.2,.1-.2,.4-.2,.5-.1,.2,.1,.2,.4,.1,.5-2.9,3.5-3.2,8.5-.8,12.4,.1,.2,0,.4-.1,.5-.1,0-.1,.1-.2,.1Z"/><path class="d" d="M40.8979,25.7587c-1.3-1.1-3.8-1.9-5.1-1.1-1.2,.8-1.8,2.2-1.6,3.6,0,0-3.4-.5-3.3,3-1.5,.6-2.2,2.3-1.6,3.8v.1s-2.4,.6-1.2,3.5c.9,1.9,2.4,3.4,4.3,4.2,1.1,.6,2.9-.2,2.3-2.4,.7,.2,1.5,.1,2.1-.4,1-1,.6-3,.6-3,.8,.2,1.6,.1,2.3-.4,1.2-.9,.6-2.6,.6-2.6,.9-.1,1.6-.7,1.9-1.5,.8-1.9-2.1-4.1-2.1-4.1l.8-2.7Z"/><path class="i" d="M34.6979,40.8587c-.1,0-.2,0-.2-.1-1.9-1.6-3.7-3.4-5.4-5.4-.2-.1-.2-.4,0-.5s.4-.2,.5,0c0,0,0,.1,.1,.1,1.6,1.9,3.4,3.7,5.3,5.3,.1,.1,.1,.4,0,.5h0c-.0999,0-.2,.1-.2999,.1Z"/><path class="i" d="M37.2978,37.4587c-.1,0-.2,0-.2-.1-2.4-1.7-4.5-3.7-6.5-5.9-.1-.2-.1-.4,0-.5,.2-.1,.4-.1,.5,0h0c1.9,2.2,4,4.1,6.3,5.8,.2,.1,.2,.4,.1,.5,.1,.1,0,.2-.2,.2Z"/><path class="i" d="M40.1979,34.4587c-.1,0-.2,0-.2-.1-2.3-1.6-4.3-3.6-6-5.9-.1-.2-.1-.4,.1-.5h0c.2-.1,.4-.1,.5,.1,1.6,2.2,3.6,4.1,5.8,5.7,.2,.1,.2,.3,.1,.5h0c-.0999,.1-.2,.2-.2999,.2Z"/><path class="i" d="M39.9978,28.7587c-.1,0-.2,0-.3-.1-.6-.5-1.1-1.1-1.5-1.7-.1-.2,0-.4,.2-.5s.4,0,.5,.2c.4,.6,.8,1.1,1.3,1.5,.1,.1,.1,.4,0,.5,0,.1-.1,.1-.2,.1Z"/><path class="i" d="M67.4978,129.2587h0c-.7,0-1.3-.4-1.7-1h0c-.8,.2-1.7,0-2.4-.5-.6-.6-1.1-2.1,.1-7.2-1.8,2-3.3,3-4.5,2.9-.5,0-.9-.2-1.1-.6-.1-.2-.2-.5,.1-1.5,1-3.6,7.4-15.5,17.8-20.2,6.1-2.7,10.3-4.3,12.7-5.1h-23.4999c-.1,0-.2,0-.3-.1s-.1-.2-.1-.3l2.7-19.8c-3.6,1.7-7.4,3.2-11.3,4.3-8.7,2.5-14.9,2.4-18.4-.5-8.3-6.8-8.2-26.6-7.3-37.7,0-.2,.1-.4,.4-.4,.2,0,.4,.1,.4,.4v.1c-.6,6.6-.5,13.3,.2,19.9,1,8.5,3.3,14.2,6.9,17.2,2.3,1.9,7.2,3.5,17.7,.4,4.1-1.2,8-2.7,11.8-4.6,.1-.1,.3-.1,.4,0,.1,.1,.2,.2,.2,.4l-2.7,20.1h25.4c.2,0,.4,.2,.4,.4s-.1,.3-.3,.3c0,0-4.9,1.3-14.9,5.8-6.1,2.8-10.5,7.9-13.2,11.7-3.2,4.5-4.5,8.3-4.3,8.8,.1,.2,.3,.3,.5,.3h0c.9,0,2.6-1,4.9-3.9,.1-.1,.3-.2,.5-.1s.2,.3,.2,.4c-1.2,4.5-1.4,7.2-.7,8.1,.4,.5,1.1,.4,1.7,.3h.2c.1,0,.3,0,.4,.2,.2,.5,.7,.8,1.2,.8h0c.9,0,1.8-1,2.1-1.4,.1-.1,.2-.1,.3-.2,.1,0,.2,0,.3,.1,.3,.2,.6,.2,.9,.1,1-.3,3.3-2,6.2-10.3,0-.1,.1-.2,.2-.2,2.1-1,4-2.3,5.8-3.9q.1-.1,.2-.1c.3,0,29.8-2,35.5-12.2,2.7-4.8,3.5-13.8,2.1-24-1.3-9.9-4.4-19-8.1-23.6-.1-.1-.1-.3,0-.5,1.4-1.8,2.4-3.8,3-5.9,1.2-4.6-.1-8.6-3.9-12-3.4-3-7.9-4.3-12.3-3.6-.1,0-.2,0-.3-.1s-.1-.2-.1-.3c.2-2.7,.9-11-5.9-16-3-2.2-6.8-3.1-10.4-2.5-3,.4-5.7,1.8-7.7,4-2.1,2.6-2.4,6.8-2.7,10.8-.1,1.9-.3,3.7-.7,5.6-1,5.3-.2,8.4,2.7,10.1,2,1,4.4,1.2,6.5,.5,.1,0,.3,0,.4,.1,.1,.1,.1,.2,.1,.4l-.8,4.7c0,.2-.2,.3-.3,.3-3.8,.6-7.6,1.6-11.2,3-5.7,2.5-18.5,9.5-18.6,9.6s-.2,.1-.3,0c-.1,0-.2-.1-.2-.2-.2-.7-.8-6.7-1.6-13.6-.7-6.3-1.4-12.8-1.8-16.2-.7-4.8-2.5-9.7-4-10.3-.2-.1-.4-.1-.5,0-1.3,.9-1.2,4-1,5.1,0,.2-.1,.4-.3,.4s-.4-.1-.4-.3-.7-4.4,1.3-5.8c.4-.3,.9-.3,1.3-.1,2,.9,3.9,6.9,4.4,10.9,.5,3.3,1.2,9.9,1.8,16.2,.6,5.6,1.2,11.3,1.5,13,2.3-1.3,13.1-7.1,18.2-9.4,3.6-1.5,7.3-2.5,11.1-3.1l.7-3.9c-2.2,.6-4.5,.3-6.6-.7-3.2-1.9-4.2-5.3-3.1-10.9,.3-1.8,.5-3.7,.6-5.5,.3-4.1,.7-8.5,2.9-11.2,3.3-4.1,12.2-6.7,19.2-1.6,6.8,5,6.5,12.9,6.2,16.1,4.5-.6,9.1,.8,12.5,3.9,5,4.5,5,9.4,4.1,12.8-.6,2.2-1.6,4.2-3,6,3.7,4.8,6.8,13.9,8.1,23.8,1.4,10.4,.5,19.5-2.2,24.5-2.5,4.5-9.3,8-20.3,10.4-5.2,1.1-10.4,1.9-15.6,2.3-1.6,1.6-3.5,2.9-5.5,4-2.3,6.5-4.7,10.1-6.8,10.7-.4,.1-.8,.1-1.2-.1-1.0003,.4001-1.9003,.9001-2.9003,1.0002Z"/><path class="i" d="M33.1979,43.4587c-.3,0-.6-.1-.9-.2-2-.9-3.6-2.5-4.5-4.5-.4-.9-.4-1.9,0-2.8,.3-.5,.7-.9,1.2-1.1-.4-1-.2-2.2,.5-3,.3-.4,.7-.7,1.1-.9,0-.9,.3-1.8,1-2.4,.6-.5,1.4-.8,2.3-.8h0c-.1-1.4,.6-2.8,1.8-3.6,1.4-.8,4.1,0,5.5,1.2,.1,.1,.2,.3,.1,.4l-.8,2.4c.7,.6,2.7,2.6,2,4.4-.3,.8-.9,1.4-1.8,1.7,.2,1-.1,2-.8,2.6-.6,.4-1.3,.6-2,.5,.2,1-.1,2-.8,2.8-.5,.5-1.2,.7-1.9,.6,.1,.8-.1,1.6-.7,2.1-.2999,.5-.7999,.6-1.2999,.6Zm.6-14.8c-.6,0-1.3,.2-1.8,.6-.5,.5-.8,1.3-.7,2,0,.2-.1,.3-.2,.4-1.3,.5-1.9,2-1.4,3.3,0,0,0,.1,.1,.1,.1,.2,0,.4-.2,.5h0c-.5,.1-.8,.5-1.1,.9-.3,.7-.2,1.5,.1,2.1,.8,1.8,2.3,3.3,4.1,4.1,.4,.2,1,.2,1.4-.1,.5-.5,.6-1.2,.4-1.9,0-.1,0-.3,.1-.4s.2-.1,.4-.1c.6,.2,1.2,.1,1.7-.3,.9-.9,.5-2.6,.5-2.7s0-.3,.1-.4,.2-.1,.4-.1c.7,.2,1.4,.1,1.9-.3,.9-.7,.5-2.2,.4-2.2v-.3c.1-.1,.2-.2,.3-.2,.7-.1,1.3-.6,1.6-1.3,.5-1.3-1.2-3.1-2-3.7-.1-.1-.2-.3-.1-.4l.8-2.4c-1.2-.9-3.4-1.5-4.5-.9-1.1,.7-1.6,2-1.4,3.2,0,.1,0,.2-.1,.3-.1,.1-.2,.1-.3,.1-.3,.1-.4,.1-.5,.1h0Z"/><path class="l" d="M72.1979,33.0587c-.3,0-.5,0-.8-.1-1-.2-1.8-.9-2.3-1.8s-.7-2-.4-3.1h0c.3-2.1,2.2-3.5,4.3-3.2s3.5,2.2,3.2,4.3c0,.2-.1,.4-.1,.6-.2,1-.8,2-1.7,2.6-.7,.5-1.4,.7-2.2,.7Zm-2.8-4.8c-.2,.9-.1,1.8,.3,2.5,.7,1.4,2.4,1.9,3.7,1.2,.1-.1,.3-.1,.4-.2,.7-.5,1.2-1.3,1.4-2.1,.4-1.6-.6-3.2-2.3-3.6s-3.1001,.6-3.5001,2.2h0Z"/><path class="h" d="M85.5978,104.8587l.5,1.1,2.9,6.5c8.9-1.1,26-4.2,30.3-11.9,5.8-10.5,1.9-38-6-48h0c-6.6,7.2-16.8,5.3-20.9-.8-.8,.2-1.5,.3-2.3,.4-1.2,.1-2.4,.1-3.6-.1-1.4-.2-2.8-.8-4-1.7-.8-.6-1.5-1.4-2-2.3h-.2c-3.8,.6-7.5,1.6-11,3-5.8,2.6-18.7,9.6-18.7,9.6-.2-.6-.7-5.2-1.3-10.8l-7.3,2.8-.8,.3-3.8,1.5-6.9,2.7c.5,8.9,2.3,18.1,7.4,22.2,8.3,6.8,30-4.1,30-4.1l-2.9,20.5h25.8c-2.8,.8-5.5,1.8-8.1,2.9l1.3,2.8,1.6,3.4Z"/><path class="h" d="M88.9978,112.8587c-.1,0-.3-.1-.3-.2l-3.4-7.6h0l-2.8-6.3v-.3c0-.1,.1-.2,.2-.2,2.5-1,4.5-1.7,5.8-2.2h-23.5c-.1,0-.2,0-.3-.1s-.1-.2-.1-.3l2.7-19.8c-3.6,1.7-7.4,3.2-11.3,4.3-8.7,2.5-14.9,2.4-18.4-.5-4.4-3.6-6.9-11.2-7.6-22.5,0-.2,.1-.3,.2-.4l11.5-4.4,7.3-2.8c.1-.1,.2-.1,.3,0s.2,.2,.2,.3c.3,3.3,.9,8.6,1.2,10.3,2.3-1.3,13.1-7.1,18.2-9.4,3.6-1.5,7.3-2.5,11.1-3.1h.3c.1,0,.2,.1,.3,.2,.5,.9,1.1,1.6,1.9,2.2,1.1,.8,2.4,1.4,3.8,1.6,1.2,.2,2.3,.2,3.5,.1,.8-.1,1.5-.2,2.2-.4,.2,0,.3,0,.4,.2,2.2,3.1,5.7,5,9.4,5.2,4.1,.3,8.1-1.3,10.9-4.4,.1-.1,.2-.1,.3-.1s.2,.1,.3,.1c3.8,4.7,6.9,13.9,8.2,24,1.4,10.4,.5,19.5-2.2,24.5-4.0001,7.5999-20.7001,10.7999-30.3001,11.9999h0Zm-3-8.2l3.3,7.3c5.6-.7,11.1-1.8,16.5-3.4,6.9-2.2,11.4-5,13.2-8.2,2.7-4.8,3.5-13.8,2.1-24-1.3-9.7-4.3-18.5-7.8-23.3-2.9,3.1-7,4.7-11.2,4.4-3.9-.2-7.5-2.2-9.9-5.3-.7,.2-1.4,.3-2.1,.3-1.2,.1-2.5,.1-3.7-.1-1.5-.2-2.9-.8-4.1-1.7-.8-.6-1.5-1.4-2.1-2.3h0c-3.7,.6-7.4,1.6-10.9,3-5.7,2.5-18.5,9.5-18.6,9.6s-.2,.1-.3,0c-.1,0-.2-.1-.2-.2-.2-.6-.6-4.1-1.2-10.4l-11.4,4.4-6.7,2.5c.6,11,3.1,18.2,7.3,21.7,8,6.5,29.3-4.1,29.5-4.2,.1-.1,.3-.1,.4,0,.1,.1,.2,.2,.2,.4l-2.8,20.2h25.4c.2,0,.4,.2,.4,.4s-.1,.3-.3,.3c-2.6,.8-5.2,1.7-7.7,2.8l2.7,5.8Z"/><path class="e" d="M90.0978,95.8587c-.2,0-.3-.1-.4-.3-.1-.2,0-.4,.2-.5h0l4.6-1.5c3.8-1.2,8-2.5,11.5-3.7,.2-.1,.4,0,.5,.2s0,.4-.2,.5c-3.5,1.2-7.8,2.5-11.5,3.7-1.7,.5-3.2,1-4.6,1.5l-.1,.1Z"/><path class="e" d="M102.5978,91.7587c-.2,0-.4-.1-.4-.3l-1.8-19.4c0-.2,.2-.4,.4-.4s.3,.1,.4,.3l1.8,19.4c0,.2-.1,.4-.4,.4h0Z"/><path class="e" d="M64.9978,96.0587h0c-.2,0-.4-.2-.3-.4l3.4-27.2c0-.2,.2-.4,.4-.3,.2,0,.3,.2,.3,.4l-3.4,27.2c0,.1-.2,.3-.4,.3Z"/><path class="j" d="M112.2978,34.0587c-3.5-3.1-8.1-4.4-12.7-3.7,.3-3.1,.8-11.3-6-16.3s-15.5-2.4-18.7,1.6c-1.3,1.8-2.1,3.9-2.3,6.1,1.7,.1,3.5,0,5.2-.4,2.3,2.7,5.3,4.7,8.7,5.8,2.9-3.1,8.2-3.1,8.9,1.3,.9,4.9-5.3,6.3-5.3,6.3-.7,4.7-.4,9.5,.8,14.1,.3,1,.8,2,1.3,2.8,4.1,6,14.3,8,20.9,.8,.3-.4,.6-.8,.9-1.2,2.0999-2.8999,5.7-10.4999-1.7001-17.2Z"/><path class="j" d="M103.0978,57.5587h-1c-4-.2-7.7-2.3-10-5.5-.6-.9-1.1-1.9-1.4-2.9-1.3-4.7-1.6-9.5-.9-14.3v-.2h.2c.2,0,5.8-1.4,5-5.9-.2-1.4-1.2-2.6-2.6-3.1-2.1-.4-4.3,.3-5.7,1.9l-.2,.2h-.2c-3.4-1.1-6.4-3-8.7-5.7-1.7,.4-3.4,.5-5.1,.3l-.4-.1v-.4c.2-2.3,1-4.5,2.4-6.3,3.3-4.1,12.2-6.7,19.2-1.6,6.8,5,6.5,12.9,6.2,16.1,4.5-.6,9.1,.8,12.5,3.9h0c3.3,3,4.8,6.4,4.5,10.3-.3,2.6-1.2,5.2-2.6,7.4-.3,.4-.6,.9-.9,1.3h0c-2.4999,2.9001-6.3,4.6-10.3,4.6Zm-12.6-22.5c-.7,4.6-.4,9.3,.9,13.7,.3,1,.7,1.9,1.3,2.7,2.2,3.1,5.7,5,9.4,5.2,4.1,.3,8.2-1.4,10.9-4.5,.3-.4,.6-.8,.9-1.2,1.9-2.9,5.4-10.2-1.8-16.7-3.4-3-7.9-4.3-12.3-3.6l-.5,.1v-.5c.2-2.7,.9-11-5.9-16-3-2.2-6.8-3.1-10.4-2.5-3,.4-5.7,1.8-7.7,4-1.2,1.7-1.9,3.6-2.1,5.6,1.6,.1,3.1-.1,4.7-.4h.2l.2,.2c1.6,1.9,3.6,3.4,5.8,4.6,.8,.4,1.6,.7,2.5,1,1.6-1.8,4-2.5,6.3-2,1.7,.5,2.9,1.9,3.1,3.6,.5999,4.7-4.3,6.4-5.5001,6.7Z"/><path class="i" d="M80.4978,48.2587h0c-.3,0-.4-.2-.4-.4h0l.8-4.7c0-.2,.2-.3,.4-.3s.3,.2,.3,.4l-.8,4.7c0,.2-.2,.3-.3,.3Z"/><path class="e" d="M50.6979,62.6587c-.2,0-.3-.1-.4-.3l-1.5-12.5c0-.2,.2-.4,.4-.4s.3,.1,.4,.3l1.5,12.4c0,.2-.1,.4-.4,.5h0Z"/><path class="f" d="M52.5968,112.2205l-32.175-4.5602c-2.2295-.304-3.8002-2.2801-3.6989-4.5096l1.4187-26.8548,45.3491,6.435-6.0803,26.1961c-.5067,2.1788-2.5841,3.5975-4.8136,3.2935h0Z"/><path class="c" d="M35.1665,109.7377l2.2295-15.7582c.1013-.76,.8107-1.2667,1.5201-1.1654s1.2667,.8107,1.1654,1.5201l-2.2295,15.7582-2.6855-.3547Z"/><path class="c" d="M24.4753,108.2177l2.2295-15.7582c.1013-.76,.8107-1.2667,1.5201-1.1654s1.2667,.8107,1.1654,1.5201l-2.2295,15.7582-2.6855-.3547Z"/><path class="c" d="M45.8071,111.2578l2.2295-15.7582c.0507-.76,.7094-1.2667,1.4694-1.2161s1.2667,.7094,1.2161,1.4694v.152l-2.2295,15.7582-2.6855-.4053Z"/><polygon class="b" points="17.7869 82.7816 18.1416 76.296 63.4907 82.731 62.0213 89.0646 17.7869 82.7816"/><circle class="c" cx="34.3558" cy="78.7281" r="2.0268"/><path class="f" d="M13.7334,78.1707l.608-4.2562c.1013-.608,.608-1.0134,1.2161-.912l51.2267,7.2457c.608,.1013,1.0134,.608,.912,1.2161l-.608,4.2562c-.1013,.608-.608,1.0134-1.2161,.912l-51.2267-7.2457c-.608-.0507-1.0134-.608-.912-1.2161Z"/><circle class="g" cx="35.4199" cy="79.0828" r="2.0268"/><path class="g" d="M19.4084,59.5751l1.7228-1.3174c.1013-.1013,.304-.0507,.3547,.0507l15.8595,21.1291c.1013,.1013,.0507,.304-.0507,.3547l-1.7228,1.3174c-.1013,.1013-.304,.0507-.3547-.0507l-15.8595-21.1291c-.1013-.1013-.0507-.304,.0507-.3547Z"/><circle class="g" cx="46.1111" cy="80.6029" r="2.0268"/><path class="g" d="M44.135,80.4002l21.1291-15.8595c.1013-.1013,.304-.0507,.3547,.0507l1.3174,1.7228c.1013,.1013,.0507,.304-.0507,.3547l-21.1291,15.8595c-.1013,.1013-.304,.0507-.3547-.0507l-1.3174-1.7228c-.1013-.1013-.0507-.304,.0507-.3547Z"/></svg>