<svg id="Layer_1" data-name="Layer 1" xmlns="http://www.w3.org/2000/svg" viewBox="0 0 595.28 595.28"><defs><style>.cls-1{fill:#f9d5de;}.cls-2,.cls-4{fill:none;stroke:#b91a1c;stroke-linecap:round;stroke-width:7px;}.cls-2{stroke-miterlimit:10;}.cls-3{fill:#b91a1c;}.cls-4{stroke-linejoin:round;}.cls-5{fill:#fffdfe;fill-rule:evenodd;}</style></defs><ellipse class="cls-1" cx="301.78" cy="310.17" rx="206.7" ry="207.85" transform="translate(-104.24 459.91) rotate(-66.03)"/><path class="cls-2" d="M156.52,202.1c51.34-63,111.06-76.78,161-71.49,68,7.2,101.26,36,126.63,68.68"/><polygon class="cls-3" points="430.43 204.4 456.05 215.48 452.84 187.75 430.43 204.4"/><path class="cls-4" d="M284.33,490.38c-80.7-11.59-123.29-55.6-144.45-101-28.82-61.84-21.15-105-6.09-143.44"/><polygon class="cls-3" points="145.21 255.11 141.63 227.42 119.44 244.37 145.21 255.11"/><path class="cls-2" d="M466.2,234.67c31.23,75.07,15,134-13.4,175.22-38.68,56.19-79.88,71.55-120.78,78.19"/><polygon class="cls-3" points="334.11 473.57 312.11 490.76 338 501.22 334.11 473.57"/><path class="cls-3" d="M277,271.48v9.91c0,24.37-16.71,44.45-44.19,44.45-28.3,0-51-21.55-51-48.6,0-26.78,22.51-47.94,50.26-47.94,13.67,0,26,5.09,34.39,13.93,1,.93.69,1.87,0,2.81l-12,12.59a1.94,1.94,0,0,1-2.9.13,29.86,29.86,0,0,0-19.74-7.1,25.23,25.23,0,0,0-25.69,25.58c0,14.73,10.22,26.11,26.52,26.11,13.8,0,21-7.23,21.54-15.13H232.94a1.93,1.93,0,0,1-2.07-2V271.48a1.93,1.93,0,0,1,2.07-2h42A1.93,1.93,0,0,1,277,271.48Z"/><path class="cls-3" d="M345.07,232.78,316.9,281.25v40.84a1.93,1.93,0,0,1-2.07,2H295.36a1.92,1.92,0,0,1-2.07-2V281l-28.17-48.21c-.83-1.6-.28-2.41,1.38-2.41h20.43a2.64,2.64,0,0,1,2.49,1.34l15.6,28,15.61-28a2.64,2.64,0,0,1,2.48-1.34h20.58C345.34,230.37,345.9,231.18,345.07,232.78Z"/><path class="cls-3" d="M421.71,297.19c0,17.67-11.6,26.91-36.46,26.91H350.32a1.92,1.92,0,0,1-2.07-2V232.38a1.93,1.93,0,0,1,2.07-2h34.79c18.51,0,29,10.71,29,24.51,0,9.91-5.52,16.87-11.18,19.28C411.76,276.57,421.71,284.6,421.71,297.19ZM382.9,250.46h-11V266h11c5.39,0,9.39-2.14,9.39-8S388.15,250.46,382.9,250.46Zm15.33,43.65c0-7.1-5.8-9.37-12-9.37H371.86V304h14.36C393.26,304,398.23,300.8,398.23,294.11Z"/><path class="cls-5" d="M363,305.55c3.3-52,9.69-64.06,15.5-63.65,5,.35,14,8.78,14.48,16.81.65,10.27-11.58,18-9.83,20.12,1.35,1.65,6.78-3.27,12.62-.89,6.58,2.69,11.91,13.94,10.39,20.42C404,307.66,386.77,311.3,363,305.55Z"/><path class="cls-3" d="M243.12,375.41c0,10.58-9.5,15.55-18.07,15.55-7.63,0-14.55-4-17.71-8a1.16,1.16,0,0,1,0-1.51l5.54-6.27a1.09,1.09,0,0,1,1.66-.14c3.74,3,6.91,4.32,10.87,4.32,2.88,0,5.69-1.3,5.69-4.11,0-7-22.33-4.68-22.33-21.31,0-9.58,8.14-14.83,16.42-14.83,6.7,0,11.67,2.66,16,6.62a1.05,1.05,0,0,1,.14,1.51l-5.25,6.56a1,1,0,0,1-1.52.28c-3.67-2.37-5.83-3.38-8.93-3.38-3.38,0-4.82,1.8-4.82,3.53C220.8,361.37,243.12,357.7,243.12,375.41Z"/><path class="cls-3" d="M292,340.77V389a1,1,0,0,1-1.08,1.08H280.78A1,1,0,0,1,279.7,389V370.87H263.35V389a1,1,0,0,1-1.08,1.08H252.12A1,1,0,0,1,251,389V340.77a1,1,0,0,1,1.08-1.08h10.15a1,1,0,0,1,1.08,1.08v19.3H279.7v-19.3a1,1,0,0,1,1.08-1.08h10.15A1,1,0,0,1,292,340.77Z"/><path class="cls-3" d="M300.29,365.11a26,26,0,1,1,26,25.92A26,26,0,0,1,300.29,365.11Zm39.46,0c0-7.92-5.84-14-13.47-14s-13.47,6.05-13.47,14,5.84,13.83,13.47,13.83S339.75,373,339.75,365.11Z"/><path class="cls-3" d="M396.48,356.62c0,10-6.77,16.92-19.08,16.92h-4.47V389a1,1,0,0,1-1.08,1.08H361.7a1,1,0,0,1-1.08-1.08V340.77a1,1,0,0,1,1.08-1.08h15.7C389.71,339.69,396.48,346.61,396.48,356.62Zm-11.74,0c0-4.9-4.1-6.13-7.56-6.13h-4.25v12.25h4.25C380.64,362.74,384.74,361.44,384.74,356.62Z"/><ellipse class="cls-3" cx="188.68" cy="365.08" rx="6.89" ry="6.93" transform="translate(-221.56 389.17) rotate(-66.03)"/><ellipse class="cls-3" cx="414.87" cy="365.08" rx="6.93" ry="6.89"/></svg>